<svg width="80" height="80" viewBox="0 0 80 80" fill="none" xmlns="http://www.w3.org/2000/svg">
<g clip-path="url(#clip0_2871_386)">
<path d="M63.4064 6.81222H9.77464C4.37626 6.81222 0 11.1889 0 16.5878V70.2245C0 75.6233 4.37626 80 9.77464 80H63.4064C68.8048 80 73.1811 75.6233 73.1811 70.2245V16.5878C73.1811 11.1889 68.8048 6.81222 63.4064 6.81222Z" fill="#231F20"/>
<mask id="mask0_2871_386" style="mask-type:luminance" maskUnits="userSpaceOnUse" x="0" y="6" width="74" height="74">
<path d="M63.4064 6.81222H9.77464C4.37626 6.81222 0 11.1889 0 16.5878V70.2245C0 75.6233 4.37626 80 9.77464 80H63.4064C68.8048 80 73.1811 75.6233 73.1811 70.2245V16.5878C73.1811 11.1889 68.8048 6.81222 63.4064 6.81222Z" fill="white"/>
</mask>
<g mask="url(#mask0_2871_386)">
<path d="M0 6.81222H73.1811V80H0V6.81222Z" fill="#231F20"/>
</g>
<path d="M69.9776 0.245308H16.3459C10.9475 0.245308 6.57121 4.62197 6.57121 10.0208V63.6575C6.57121 69.0564 10.9475 73.4331 16.3459 73.4331H69.9776C75.376 73.4331 79.7523 69.0564 79.7523 63.6575V10.0208C79.7523 4.62197 75.376 0.245308 69.9776 0.245308Z" fill="white"/>
<mask id="mask1_2871_386" style="mask-type:luminance" maskUnits="userSpaceOnUse" x="6" y="0" width="74" height="74">
<path d="M69.9776 0.245308H16.3459C10.9475 0.245308 6.57121 4.62197 6.57121 10.0208V63.6575C6.57121 69.0564 10.9475 73.4331 16.3459 73.4331H69.9776C75.376 73.4331 79.7523 69.0564 79.7523 63.6575V10.0208C79.7523 4.62197 75.376 0.245308 69.9776 0.245308Z" fill="white"/>
</mask>
<g mask="url(#mask1_2871_386)">
<path d="M6.57121 0.245308H79.7523V73.4331H6.57121V0.245308Z" fill="white" stroke="#231F20" stroke-width="2" stroke-miterlimit="10"/>
</g>
<path d="M69.9776 0.245308H16.3459C10.9475 0.245308 6.57121 4.62197 6.57121 10.0208V63.6575C6.57121 69.0564 10.9475 73.4331 16.3459 73.4331H69.9776C75.376 73.4331 79.7523 69.0564 79.7523 63.6575V10.0208C79.7523 4.62197 75.376 0.245308 69.9776 0.245308Z" stroke="#231F20" stroke-width="2" stroke-miterlimit="10"/>
<path d="M18.1413 11.2719V6.81222H33.8274V11.2719H28.5267V29.1255H23.4444V11.2719H18.1389H18.1413Z" fill="black"/>
<path d="M40.428 15.2484V21.8472C40.428 23.2184 40.6341 24.1923 41.0486 24.7688C41.4631 25.3477 42.1646 25.6347 43.1556 25.6347C44.1466 25.6347 44.8481 25.3477 45.2626 24.7688C45.6796 24.1923 45.8881 23.2184 45.8881 21.8472V15.2484H50.6736V23.0075C50.6736 25.3158 50.0751 26.9815 48.8757 28.002C47.6762 29.02 45.7703 29.5302 43.1531 29.5302C40.5359 29.5302 38.6325 29.02 37.4355 28.002C36.2361 26.9815 35.6376 25.3158 35.6376 23.0075V15.2484H40.4231H40.428Z" fill="black"/>
<path d="M52.4912 11.2719V6.81222H68.1772V11.2719H62.8766V29.1255H57.7943V11.2719H52.4887H52.4912Z" fill="black"/>
<path d="M27.7516 38.1945V44.0353H25.6029V34.6253H27.7516L31.4898 40.4661H31.5143V34.6253H33.6581V44.0353H31.5143L27.7713 38.1945H27.7516Z" fill="black"/>
<path d="M40.4084 34.6253V36.5093H37.1706V38.3785H40.271V40.2625H37.1706V42.1514H40.4084V44.0353H35.0219V34.6253H40.4084Z" fill="black"/>
<path d="M48.856 44.0353L47.3549 38.7538L45.8488 44.0353H43.4671L40.7837 34.6253H43.1728L44.7769 41.0818H44.8383L46.5479 34.6253H48.1668L49.8764 41.0818H49.9329L51.5419 34.6253H53.9138L51.2304 44.0353H48.8585H48.856Z" fill="black"/>
<path d="M57.885 34.4511C58.3952 34.4511 58.8907 34.5272 59.3764 34.6744C59.8645 34.824 60.2275 34.9687 60.4654 35.1135L60.8064 35.3416L59.9405 37.0514C59.8694 37.0072 59.7713 36.9484 59.6511 36.8772C59.5309 36.8036 59.3052 36.7031 58.9692 36.5829C58.6356 36.4602 58.3241 36.3989 58.0322 36.3989C57.6765 36.3989 57.4018 36.4749 57.208 36.627C57.0143 36.7791 56.9186 36.9852 56.9186 37.2427C56.9186 37.3727 56.9652 37.4929 57.056 37.6033C57.1467 37.7137 57.3037 37.829 57.5245 37.9541C57.7452 38.0792 57.939 38.1823 58.1058 38.2608C58.2701 38.3368 58.5301 38.4497 58.8809 38.6017C59.4892 38.8593 60.0067 39.2126 60.4385 39.6566C60.8677 40.103 61.086 40.6059 61.086 41.1701C61.086 41.7343 60.9879 42.1832 60.7917 42.5856C60.5979 42.9854 60.3305 43.3019 59.992 43.5324C59.656 43.7606 59.2807 43.9274 58.8711 44.0378C58.459 44.1506 58.015 44.207 57.5367 44.207C57.1246 44.207 56.7224 44.1629 56.325 44.0795C55.9301 43.9961 55.599 43.8906 55.3316 43.763C55.0667 43.6379 54.8263 43.5153 54.6129 43.3975C54.402 43.2749 54.2474 43.1718 54.1493 43.086L54.0022 42.9584L55.0716 41.1603C55.1624 41.2364 55.2874 41.332 55.4493 41.4498C55.6088 41.5651 55.8933 41.7245 56.3005 41.9232C56.7077 42.1195 57.0658 42.2176 57.3797 42.2176C58.2824 42.2176 58.7337 41.9085 58.7337 41.2903C58.7337 41.1628 58.7018 41.0426 58.6381 40.9346C58.5743 40.8218 58.459 40.7139 58.2971 40.6035C58.1352 40.4906 57.988 40.4048 57.8654 40.3385C57.7403 40.2747 57.5343 40.1766 57.2497 40.0442C56.9652 39.9117 56.7518 39.8136 56.6144 39.7449C56.0454 39.4628 55.6014 39.112 55.2899 38.6901C54.9808 38.2657 54.8263 37.8119 54.8263 37.3261C54.8263 36.4798 55.1378 35.7905 55.7584 35.2533C56.3814 34.7185 57.0928 34.4487 57.8924 34.4487L57.885 34.4511Z" fill="black"/>
<path d="M66.8821 55.0399H19.4438C18.6344 55.0399 17.977 54.3824 17.977 53.5729C17.977 52.7634 18.6344 52.106 19.4438 52.106H66.8821C67.6916 52.106 68.3489 52.7634 68.3489 53.5729C68.3489 54.3824 67.6916 55.0399 66.8821 55.0399Z" fill="black"/>
<path d="M66.8821 61.4449H19.4438C18.6344 61.4449 17.977 60.7874 17.977 59.9779C17.977 59.1684 18.6344 58.511 19.4438 58.511H66.8821C67.6916 58.511 68.3489 59.1684 68.3489 59.9779C68.3489 60.7874 67.6916 61.4449 66.8821 61.4449Z" fill="black"/>
<path d="M66.8821 67.7984H19.4438C18.6344 67.7984 17.977 67.1409 17.977 66.3314C17.977 65.5219 18.6344 64.8645 19.4438 64.8645H66.8821C67.6916 64.8645 68.3489 65.5219 68.3489 66.3314C68.3489 67.1409 67.6916 67.7984 66.8821 67.7984Z" fill="black"/>
</g>
<defs>
<clipPath id="clip0_2871_386">
<rect width="80" height="80" fill="white"/>
</clipPath>
</defs>
</svg>
